<svg width="145" height="40" viewBox="0 0 145 40" fill="none" xmlns="http://www.w3.org/2000/svg">
<path d="M143 29C142.86 29 142.73 28.9742 142.608 28.9225C142.487 28.8685 142.381 28.7969 142.29 28.7077C142.202 28.6162 142.131 28.5106 142.077 28.3908C142.026 28.2688 142 28.1385 142 28C142 27.8615 142.026 27.7324 142.077 27.6127C142.131 27.4906 142.202 27.385 142.29 27.2958C142.381 27.2042 142.487 27.1326 142.608 27.081C142.73 27.027 142.86 27 143 27C143.14 27 143.27 27.027 143.392 27.081C143.513 27.1326 143.618 27.2042 143.706 27.2958C143.797 27.385 143.868 27.4906 143.92 27.6127C143.973 27.7324 144 27.8615 144 28C144 28.1385 143.973 28.2688 143.92 28.3908C143.868 28.5106 143.797 28.6162 143.706 28.7077C143.618 28.7969 143.513 28.8685 143.392 28.9225C143.27 28.9742 143.14 29 143 29ZM143 28.7606C143.105 28.7606 143.202 28.7418 143.29 28.7042C143.381 28.6643 143.46 28.6103 143.528 28.5423C143.596 28.4718 143.648 28.3908 143.685 28.2993C143.725 28.2054 143.745 28.1056 143.745 28C143.745 27.8944 143.725 27.7958 143.685 27.7042C143.648 27.6103 143.596 27.5293 143.528 27.4613C143.46 27.3908 143.381 27.3369 143.29 27.2993C143.202 27.2594 143.105 27.2394 143 27.2394C142.895 27.2394 142.797 27.2594 142.706 27.2993C142.618 27.3369 142.54 27.3908 142.472 27.4613C142.404 27.5293 142.351 27.6103 142.311 27.7042C142.274 27.7958 142.255 27.8944 142.255 28C142.255 28.1056 142.274 28.2054 142.311 28.2993C142.351 28.3908 142.404 28.4718 142.472 28.5423C142.54 28.6103 142.618 28.6643 142.706 28.7042C142.797 28.7418 142.895 28.7606 143 28.7606ZM143.014 28.1901H142.871V28.5282H142.622V27.4718H143.017C143.169 27.4718 143.279 27.5023 143.346 27.5634C143.414 27.6244 143.448 27.7148 143.448 27.8345C143.448 27.9965 143.38 28.1033 143.245 28.1549L143.423 28.5282H143.161L143.014 28.1901ZM142.871 27.6972V27.9683H143.017C143.08 27.9683 143.124 27.9577 143.147 27.9366C143.172 27.9131 143.185 27.8791 143.185 27.8345C143.185 27.7899 143.172 27.7559 143.147 27.7324C143.124 27.7089 143.08 27.6972 143.017 27.6972H142.871Z" fill="black"/>
<path d="M112.763 26.4023L110.768 13.7229H105.325L102.891 29.1857H106.127H106.252L106.269 29.062L106.398 28.0923L106.623 26.4023H109.47L109.828 29.0934L109.841 29.1857H113.202L113.125 28.6944L112.763 26.4023ZM107.015 23.5155L108.046 15.991L109.076 23.5155H107.015Z" fill="black"/>
<path d="M124.498 26.4227L123.117 13.7211H118.91L117.611 26.443L116.621 13.7211H113.426L115.096 29.1839H119.839L121.056 16.4639L122.334 29.1839H127.014L128.684 13.7211H125.487L124.498 26.4227Z" fill="black"/>
<path d="M136.803 20.9797L139.856 13.7211H136.206L133.65 21.0831V13.7211H130.187V29.1839H133.65V21.8035L136.166 29.1839H140L136.803 20.9797Z" fill="black"/>
<path d="M55.9999 20.7008C56.4727 20.0895 56.711 19.3008 56.711 18.3404V17.7438C56.711 16.8647 56.5152 16.1296 56.1236 15.5367C55.7321 14.9457 55.1928 14.495 54.5057 14.1866C53.8168 13.8781 53.0355 13.7211 52.1545 13.7211H46.9996V16.6061V29.1839H50.4645V21.5763L53.2479 29.1839H57.1025L54.1141 22.0306C54.8973 21.7554 55.5271 21.3122 55.9999 20.7008ZM53.2479 18.6285C53.2479 19.3174 53.1057 19.8106 52.825 20.1135C52.5442 20.4164 52.1619 20.5678 51.6817 20.5678H50.4664V18.0319C50.4664 17.2451 49.8292 16.6079 49.0424 16.6079H50.4664H51.6817C52.1619 16.6079 52.5442 16.7354 52.825 16.9884C53.1057 17.2433 53.2479 17.6921 53.2479 18.3385V18.6285Z" fill="black"/>
<path d="M65.2883 13.7211H59.8453L57.8506 26.4005L57.4128 29.1839H60.7743L61.1456 26.4005H63.9917L64.363 29.1839H67.7244L67.2867 26.4005L65.2883 13.7211ZM61.5371 23.5156L62.5677 15.9911L63.5983 23.5156H61.5371Z" fill="black"/>
<path d="M67.4125 16.7114H69.9262V29.1839H73.4317V16.7114H75.9473V13.7211H67.4125V16.7114Z" fill="black"/>
<path d="M77.1848 16.7114V22.7934V29.1839H84.8941V26.1955H80.6479V22.7934H84.8941V19.8032H80.6479V16.7114H84.8941V13.7211H77.1848V16.7114Z" fill="black"/>
<path d="M97.8836 19.7422H94.7918V13.7211H91.2881V22.7509V29.1821H94.7918V24.1768C94.7918 23.39 94.1546 22.7528 93.3678 22.7528H94.7918H97.8836V29.1839H101.387V22.7528V13.7211H97.8836V19.7422Z" fill="black"/>
<path d="M38.6736 12.4135L26.1106 5.16042L17.1749 0L19.6462 3.46675C20.2224 4.27573 19.3488 5.3248 18.4475 4.90185L10.6385 1.23931L26.1106 13.3222C26.1106 13.3222 31.9784 17.7863 33.9011 19.3821C34.2409 19.6646 34.4736 20.058 34.5586 20.4958L35.1588 23.6578C35.7813 26.6296 34.6306 27.7451 33.5206 28.4137L32.1483 29.2338L32.3625 27.5512C32.4475 26.9047 32.3108 26.6499 31.923 26.4153L28.5744 24.5443C28.3823 24.4298 28.1718 24.367 27.9501 24.3375C25.7171 24.0327 0 20.3887 0 20.3887C0 20.3887 7.38602 22.8673 11.9203 24.3892C12.8604 24.705 12.7718 26.0625 11.7984 26.2528L8.1562 26.9694L24.7789 36.605C25.6747 37.1222 26.7792 37.124 27.6749 36.6087C30.486 34.9908 36.5865 31.4797 38.6625 30.2792C39.5546 29.762 40.1069 28.8108 40.1105 27.7802C40.1235 23.9607 40.1235 14.9235 40.1235 14.9235C40.1235 13.8873 39.5712 12.9306 38.6736 12.4135Z" fill="black"/>
<path d="M30.7447 22.0436C30.9793 22.5829 31.6035 22.8341 32.1447 22.5995C32.527 22.4333 32.7579 22.0676 32.7782 21.6797L28.1977 18.961C28.1977 18.961 28.1516 19.2232 28.2975 19.3618C28.4489 19.5077 30.0853 20.8744 30.6948 21.3842C30.6413 21.5966 30.6524 21.8275 30.7447 22.0436Z" fill="black"/>
</svg>
